<svg width="24" height="24" viewBox="0 0 24 24" fill="none" xmlns="http://www.w3.org/2000/svg">
    <rect width="1.34127" height="17.3513" transform="matrix(0.712939 0.701226 -0.712939 0.701226 15.4625 3.2547)" fill="#0E6795"/>
    <rect width="1.34127" height="17.3513" transform="matrix(0.712939 0.701226 -0.712939 0.701226 19.5195 7.73624)" fill="#0E6795"/>
    <path d="M2.97832 15.5739C3.10711 15.2293 3.49198 15.0513 3.83795 15.1764C4.18393 15.3015 4.35999 15.6823 4.2312 16.0269L1.67217 22.8742C1.54338 23.2188 1.15851 23.3968 0.812535 23.2717C0.466561 23.1466 0.2905 22.7658 0.41929 22.4212L2.97832 15.5739Z" fill="#0E6795"/>
    <path d="M7.34139 19.7724C7.70488 19.628 8.12002 19.8042 8.26864 20.166C8.41726 20.5278 8.24307 20.9382 7.87959 21.0826L1.19638 23.7385C0.832893 23.8829 0.41775 23.7067 0.269131 23.3449C0.120512 22.9831 0.294698 22.5727 0.658184 22.4283L7.34139 19.7724Z" fill="#0E6795"/>
    <path d="M15.0091 3.69844C15.4928 3.21275 16.0404 2.79796 16.6207 2.47774C17.201 2.15751 17.8025 1.93814 18.391 1.83213C18.9794 1.72613 19.5433 1.73557 20.0504 1.85991C20.5575 1.98426 20.9978 2.22108 21.3463 2.55685C21.6948 2.89262 21.9446 3.32077 22.0814 3.81684C22.2183 4.31292 22.2395 4.86721 22.1439 5.44807C22.0483 6.02893 21.8377 6.62498 21.5241 7.20219C21.2106 7.7794 20.8003 8.32646 20.3165 8.81215L19.3877 7.91725C19.7022 7.60155 19.9689 7.24596 20.1727 6.87077C20.3765 6.49559 20.5134 6.10816 20.5755 5.7306C20.6377 5.35304 20.6239 4.99275 20.5349 4.6703C20.446 4.34785 20.2836 4.06956 20.0571 3.85131C19.8306 3.63305 19.5443 3.47912 19.2147 3.3983C18.8851 3.31747 18.5186 3.31133 18.1361 3.38024C17.7536 3.44914 17.3626 3.59174 16.9854 3.79988C16.6083 4.00802 16.2523 4.27764 15.9379 4.59334L15.0091 3.69844Z" fill="#0E6795"/>
    <rect width="1.34127" height="3.31922" transform="matrix(0.712939 -0.701226 0.712939 0.701226 18.4701 9.17084)" fill="#0E6795"/>
    <rect width="1.34127" height="8.04765" rx="0.670637" transform="matrix(0.712939 0.701226 -0.712939 0.701226 21.5212 10.274)" fill="#0E6795"/>
</svg>